# xmcd CD database file
#
# Track frame offsets:
#	182
#	18090
#	38342
#	57867
#	75570
#	92737
#	107790
#	119692
#	139047
#	159802
#	180282
#	198177
#	210750
#
# Disc length: 3034 seconds
#
# Revision: 0
# Processed by: cddbd v1.5.1PL0 Copyright (c) Steve Scherf et al.
# Submitted via: CDex 1.51
#
DISCID=8f0bd80d
DTITLE=Rick Bryant and the Jive Bombers - Time
DYEAR=1900
DGENRE=Jazz
TTITLE0=Morning
TTITLE1=Powerhouse
TTITLE2=Daddy'll Kiss It Better
TTITLE3=Time
TTITLE4=How Can I Be Sure
TTITLE5=Rhyme or Reason
TTITLE6=Shame
TTITLE7=Hot and Bothered
TTITLE8=Class
TTITLE9=Everybody Needs Love
TTITLE10=Lucky
TTITLE11=We Could Just Disappear
TTITLE12=Myster Extra Track
EXTD=
EXTT0=
EXTT1=
EXTT2=
EXTT3=
EXTT4=
EXTT5=
EXTT6=
EXTT7=
EXTT8=
EXTT9=
EXTT10=
EXTT11=
EXTT12=
PLAYORDER=
